<svg width="40" height="28" viewBox="0 0 40 28" fill="none" xmlns="http://www.w3.org/2000/svg">
<path d="M38.75 2.5H1.25C0.56 2.5 0 1.94 0 1.25C0 0.56 0.56 0 1.25 0H38.75C39.44 0 40 0.56 40 1.25C40 1.94 39.44 2.5 38.75 2.5Z" fill="#3C3A58"/>
<path d="M38.75 15H1.25C0.56 15 0 14.44 0 13.75C0 13.06 0.56 12.5 1.25 12.5H38.75C39.44 12.5 40 13.06 40 13.75C40 14.44 39.44 15 38.75 15Z" fill="#3C3A58"/>
<path d="M38.75 27.5H1.25C0.56 27.5 0 26.94 0 26.25C0 25.56 0.56 25 1.25 25H38.75C39.44 25 40 25.56 40 26.25C40 26.94 39.44 27.5 38.75 27.5Z" fill="#3C3A58"/>
</svg>
